<svg xmlns="http://www.w3.org/2000/svg" viewBox="0 0 512 512">

  <!-- BACKGROUND -->
  <rect width="100%" height="100%" fill="#ffffff"/>

  <!-- OUTER AURA RING -->
  <circle cx="256" cy="256" r="230" fill="none" stroke="#e2e8f0" stroke-width="14"/>

  <!-- COLOR PETALS (EVEN, SYMMETRIC, SMOOTH) -->
  <g transform="translate(256,256)">
    <path d="M0,-180 A180,180 0 0 1 156,-90 L70,-40 A100,100 0 0 0 0,-100Z" fill="#2563eb"/>
    <path d="M156,-90 A180,180 0 0 1 156,90 L70,40 A100,100 0 0 0 70,-40Z" fill="#fb923c"/>
    <path d="M156,90 A180,180 0 0 1 0,180 L0,100 A100,100 0 0 0 70,40Z" fill="#ef4444"/>
    <path d="M0,180 A180,180 0 0 1 -156,90 L-70,40 A100,100 0 0 0 0,100Z" fill="#10b981"/>
    <path d="M-156,90 A180,180 0 0 1 -156,-90 L-70,-40 A100,100 0 0 0 -70,40Z" fill="#06b6d4"/>
    <path d="M-156,-90 A180,180 0 0 1 0,-180 L0,-100 A100,100 0 0 0 -70,-40Z" fill="#7c3aed"/>
  </g>

  <!-- WHITE CENTRAL DISC -->
  <circle cx="256" cy="256" r="115" fill="#ffffff" stroke="#cbd5e1" stroke-width="6"/>

  <!-- TEXT EDUMATTER -->
  <text x="256" y="242" font-family="Segoe UI,Roboto" font-size="38" font-weight="700"
    fill="#0f172a" text-anchor="middle">
    EDUMATTER
  </text>

  <!-- TAGLINE -->
  <text x="256" y="277" font-family="Segoe UI,Roboto" font-size="16" font-weight="400"
    fill="#475569" text-anchor="middle">
    Learn · Explore · Master
  </text>

  <!-- SUBJECT ICONS (PURE VECTOR, CLEAN) -->

  <!-- Chemistry (Flask) -->
  <g fill="#ffffff" transform="translate(256,256) translate(90,-128) scale(1.4)">
    <path d="M12 2v6l8 14a6 6 0 1 1-12 0l8-14V2h-4z" stroke="#ffffff" stroke-width="2" fill="none"/>
  </g>

  <!-- Math (Sigma) -->
  <g fill="#ffffff" transform="translate(256,256) translate(150,0) scale(1.5)">
    <path d="M2 2h20v4H10l10 8-10 8h12v4H2l12-12z" fill="#ffffff"/>
  </g>

  <!-- Physics (Atom) -->
  <g fill="none" stroke="#ffffff" stroke-width="2" transform="translate(256,256) translate(90,128) scale(1.4)">
    <circle cx="12" cy="12" r="3" fill="#ffffff"/>
    <ellipse cx="12" cy="12" rx="12" ry="4"/>
    <ellipse cx="12" cy="12" rx="4" ry="12"/>
    <ellipse cx="12" cy="12" rx="10" ry="6" transform="rotate(45 12 12)"/>
  </g>

  <!-- Biology (DNA) -->
  <g fill="none" stroke="#ffffff" stroke-width="2" transform="translate(256,256) translate(-90,128) scale(1.3)">
    <path d="M4 2c6 6 6 18 0 24M20 2c-6 6-6 18 0 24"/>
    <path d="M4 6h16M4 14h16M4 22h16"/>
  </g>

  <!-- Geometry (Ruler + Triangle) -->
  <g fill="none" stroke="#ffffff" stroke-width="2" transform="translate(256,256) translate(-150,0) scale(1.3)">
    <path d="M2 2l20 10-10 10z"/>
    <path d="M2 2h20v4H2z"/>
  </g>

  <!-- Informatics (Laptop) -->
  <g fill="none" stroke="#ffffff" stroke-width="2" transform="translate(256,256) translate(-90,-128) scale(1.2)">
    <rect x="3" y="4" width="18" height="10" rx="1"/>
    <path d="M2 14h20l-2 4H4z"/>
  </g>

</svg>
